<svg width="31" height="31" viewBox="0 0 31 31" fill="none" xmlns="http://www.w3.org/2000/svg">
<path d="M0.964844 15.4548C0.964844 18.3042 1.78586 20.9604 3.18642 23.182H27.672C29.0726 20.9604 29.8936 18.3042 29.8936 15.4548C29.8936 12.6053 29.0726 9.94911 27.672 7.72754H3.18642C1.78586 9.94911 0.964844 12.6053 0.964844 15.4548Z" fill="#FFCE31"/>
<path d="M27.7214 7.72713C25.1618 3.67035 20.622 0.96582 15.4545 0.96582C10.2869 0.96582 5.74714 3.67035 3.1875 7.72713H27.7214ZM3.1875 23.1816C5.74714 27.2384 10.2869 29.9429 15.4545 29.9429C20.622 29.9429 25.1618 27.2384 27.7214 23.1816H3.1875Z" fill="#ED4C5C"/>
<path d="M4.44141 13.8613H5.98685V14.7306H4.44141V13.8613ZM4.44141 20.2363H6.03514V21.0573H4.44141V20.2363Z" fill="#C8B100"/>
<path d="M4.30007 18.8838C4.15518 18.9804 4.05859 19.077 4.05859 19.1253C4.05859 19.1736 4.10689 19.2219 4.20348 19.2702C4.30007 19.3184 4.39666 19.415 4.34836 19.5116C4.44495 19.415 4.49325 19.3184 4.49325 19.2219C4.49325 19.077 4.39666 18.9321 4.30007 18.8838Z" fill="#ED4C5C"/>
<path d="M4.68359 14.7305H5.79438V20.2361H4.68359V14.7305Z" fill="white"/>
<path d="M6.95308 16.7585C6.7116 16.6619 6.27694 16.5653 5.79399 16.5653C5.64911 16.5653 5.45593 16.5653 5.26275 16.6136C4.58662 16.7102 4.05537 17 4.10366 17.1932L3.86219 16.6619C3.81389 16.4205 4.39344 16.1307 5.11786 15.9858C5.35934 15.9375 5.60081 15.9375 5.79399 15.9375C6.27694 15.9375 6.7116 15.9858 6.95308 16.0824V16.7585Z" fill="#ED4C5C"/>
<path d="M4.68359 17.4829C4.39382 17.4829 4.15234 17.3863 4.15234 17.2414C4.15234 17.1448 4.24893 16.9999 4.44211 16.9033H4.73188L4.68359 17.4829ZM5.79438 17.0482C5.98756 17.0965 6.13244 17.1448 6.22903 17.1931C6.27733 17.2414 6.08415 17.4346 5.79438 17.5795V17.0482Z" fill="#ED4C5C"/>
<path d="M3.95773 18.5456C3.90943 18.449 4.2475 18.2559 4.68215 18.111C4.87533 18.0627 5.02022 17.9661 5.26169 17.8695C5.84123 17.628 6.32419 17.2899 6.2276 17.1934L6.32419 17.7729C6.37248 17.8695 5.98612 18.1593 5.40658 18.449C5.2134 18.5456 4.87533 18.6905 4.68215 18.7388C4.34409 18.8354 4.05432 19.0286 4.05432 19.0769L3.95773 18.5456Z" fill="#ED4C5C"/>
<path d="M14.8256 13.8613H16.3711V14.7306H14.8256V13.8613ZM14.7773 20.2363H16.3711V21.0573H14.7773V20.2363Z" fill="#C8B100"/>
<path d="M16.5174 18.8835C16.6623 18.9801 16.7589 19.0767 16.7589 19.125C16.7589 19.1733 16.7106 19.2216 16.614 19.2699C16.5174 19.3665 16.4208 19.5114 16.4691 19.5597C16.3725 19.4631 16.3242 19.3665 16.3242 19.2699C16.3242 19.0767 16.4208 18.9318 16.5174 18.8835Z" fill="#ED4C5C"/>
<path d="M15.0195 14.7305H16.1303V20.2361H15.0195V14.7305Z" fill="white"/>
<path d="M13.8594 16.7585C14.1009 16.6619 14.5355 16.5653 15.0185 16.5653C15.1633 16.5653 15.3565 16.5653 15.5497 16.6136C16.2258 16.7102 16.7571 17 16.7088 17.1932L16.9503 16.6136C16.9986 16.3722 16.419 16.0824 15.6946 15.9375H15.0185C14.5355 15.9375 14.1009 15.9858 13.8594 16.0824V16.7585Z" fill="#ED4C5C"/>
<path d="M16.131 17.4829C16.4207 17.4829 16.6622 17.3863 16.6622 17.2414C16.6622 17.1448 16.5656 16.9999 16.3724 16.9033H16.0827L16.131 17.4829ZM15.0202 17.0482C14.827 17.0965 14.6821 17.1448 14.5855 17.1931C14.5372 17.2414 14.7304 17.4346 15.0202 17.5795V17.0482Z" fill="#ED4C5C"/>
<path d="M16.855 18.545C16.9033 18.4485 16.5653 18.2553 16.1306 18.1104C15.9374 18.0621 15.7925 17.9655 15.5511 17.8689C14.9715 17.6274 14.4886 17.2894 14.5852 17.1928L14.4886 17.7723C14.4403 17.8689 14.8266 18.1587 15.4062 18.4485C15.5994 18.545 15.9374 18.6899 16.1306 18.7382C16.4687 18.8348 16.7584 19.0763 16.7102 19.1246L16.855 18.545ZM10.3835 10.7695C11.3011 10.7695 13.1846 10.9627 13.8607 11.6388C13.1363 13.3775 11.9772 12.653 10.3835 12.653C8.83805 12.653 7.63068 13.3775 6.90625 11.6388C7.58238 10.9627 9.41759 10.7695 10.3835 10.7695Z" fill="#ED4C5C"/>
<path d="M12.7514 12.7015C12.1718 12.3634 11.3025 12.3151 10.3849 12.3151C9.46731 12.3151 8.598 12.4117 8.01846 12.7015L8.21164 13.5225C8.74288 13.6674 9.5156 13.764 10.3849 13.764C11.2542 13.764 11.9787 13.6674 12.5582 13.5225L12.7514 12.7015ZM13.5724 10.6248C13.3792 10.4799 12.9929 10.335 12.6548 10.335C12.5099 10.335 12.365 10.335 12.2201 10.3833C12.2201 10.3833 11.9304 9.99698 11.2542 9.99698C11.0128 9.99698 10.8196 10.0453 10.6264 10.1419V10.0936C10.5781 9.99698 10.4815 9.90039 10.3849 9.90039C10.2883 9.90039 10.1434 10.0453 10.1434 10.1419V10.1902C9.95026 10.0936 9.75708 10.0453 9.5156 10.0453C8.83947 10.0453 8.5497 10.4799 8.5497 10.4316C8.40482 10.3833 8.25993 10.3833 8.11505 10.3833C5.89347 10.3833 7.00426 11.8805 7.00426 11.8805L7.24573 11.5907C6.71449 10.9146 7.19744 10.5282 8.16334 10.5282C8.30823 10.5282 8.40482 10.5282 8.50141 10.5765C8.16334 11.0595 8.79118 11.4941 8.79118 11.4941L8.93606 11.2527C8.598 11.0112 8.5497 10.1902 9.5156 10.1902C9.75708 10.1902 9.95026 10.2385 10.1434 10.3833C10.1434 10.4316 10.0951 11.1078 10.0469 11.2044L10.4332 11.5424L10.8196 11.2044C10.7713 11.0595 10.723 10.4316 10.723 10.3833C10.8679 10.2868 11.1093 10.1902 11.3508 10.1902C12.365 10.1902 12.365 11.0112 11.9304 11.2527L12.0752 11.4941C12.0752 11.4941 12.6065 11.0595 12.365 10.5765C12.4616 10.5765 12.6065 10.5282 12.7031 10.5282C13.8622 10.5282 13.9105 11.3975 13.6207 11.5907L13.8139 11.8805C13.7173 11.8805 14.2485 11.2044 13.5724 10.6248Z" fill="#C8B100"/>
<path d="M10.0938 9.70774C10.0938 9.56285 10.2386 9.41797 10.3835 9.41797C10.5767 9.41797 10.6733 9.56285 10.6733 9.70774C10.6733 9.85262 10.5284 9.99751 10.3835 9.99751C10.2386 9.99751 10.0938 9.85262 10.0938 9.70774Z" fill="#005BBF"/>
<path d="M10.2869 8.88672V9.0316H10.142V9.17649H10.2869V9.65944H10.0938V9.80433H10.6733L10.7216 9.70774L10.6733 9.65944H10.4801V9.17649H10.625V9.0316H10.4801V8.88672H10.2869Z" fill="#C8B100"/>
<path d="M10.3824 13.6675C9.60972 13.6675 8.93359 13.5709 8.40234 13.426C8.93359 13.2812 9.60972 13.1846 10.3824 13.1846C11.1552 13.1846 11.8313 13.2812 12.3625 13.426C11.8796 13.5709 11.1552 13.6675 10.3824 13.6675Z" fill="#ED4C5C"/>
<path d="M10.4304 22.0227C9.51277 22.0227 8.64345 21.7812 7.87073 21.4431C7.29119 21.1534 6.95312 20.6221 6.95312 19.9943V17.6761H13.9076V19.9943C13.9076 20.6221 13.5213 21.2016 12.99 21.4431C12.2173 21.8295 11.348 22.0227 10.4304 22.0227ZM10.3821 13.8125H13.8593V17.6761H10.3821V13.8125Z" fill="white"/>
<path d="M10.4304 19.9939C10.4304 20.9116 9.65765 21.636 8.69175 21.636C7.72585 21.636 6.95312 20.9116 6.95312 19.9939V17.6758H10.4304V19.9939Z" fill="#ED4C5C"/>
<path d="M7.67897 21.3461C7.77556 21.3944 7.92045 21.491 8.11363 21.5393V17.5791H7.72727L7.67897 21.3461ZM6.90625 19.9456C6.90625 20.4285 7.09943 20.8149 7.29261 21.0081V17.5791H6.90625V19.9456Z" fill="#C8B100"/>
<path d="M8.45312 21.6359H8.83949V17.5791H8.45312V21.6359Z" fill="#C7B500"/>
<path d="M9.22266 21.5393C9.36754 21.491 9.56072 21.3944 9.65731 21.3461V17.5791H9.27095L9.22266 21.5393Z" fill="#C8B100"/>
<path d="M6.90625 13.8125H10.3835V17.6761H6.90625V13.8125Z" fill="#ED4C5C"/>
<path d="M10.0469 21.0086C10.2401 20.8637 10.3849 20.5256 10.4332 20.1393V17.6279H10.0469V21.0086Z" fill="#C8B100"/>
<path d="M13.9098 17.6762V19.9944C13.9098 20.912 13.1371 21.6364 12.1712 21.6364C11.2052 21.6364 10.4325 20.912 10.4325 19.9944V17.6762H13.9098ZM12.6541 14.4887C12.799 14.7785 12.799 15.5029 12.3643 15.358C12.4609 15.4063 12.5092 15.7444 12.6541 15.9376C12.8956 16.2273 13.1853 15.9859 13.1371 15.6478C13.0405 15.1166 13.0888 14.7785 13.1853 14.2472C13.1853 14.2955 13.4268 14.2955 13.5234 14.1989C13.4751 14.3438 13.4268 14.537 13.5234 14.537C13.4268 14.6819 13.1853 14.9234 13.1371 15.0683C13.0888 15.4063 13.62 16.0342 13.0405 16.179C12.6541 16.2756 12.8956 16.5654 13.0405 16.7103C13.0405 16.7103 12.8473 17.3381 12.9439 17.2898C12.5575 17.4347 12.6541 17.0967 12.6541 17.0967C12.8473 16.5171 12.316 16.4688 12.3643 16.3722C11.8814 16.3239 12.4126 16.8069 11.978 16.8069C11.8814 16.8069 11.6882 16.9035 11.6882 16.9035C11.157 16.8552 11.4467 16.3722 11.6399 16.4205C11.7848 16.4688 11.9297 16.7103 11.9297 16.3722C11.9297 16.3722 11.6882 15.9859 12.316 15.9859C12.0746 15.9859 11.9297 15.7927 11.8331 15.5512C11.7365 15.5995 11.5916 15.841 11.0604 15.8893C11.0604 15.8893 10.9155 15.358 11.0604 15.4546C11.2535 15.5512 11.3501 15.5512 11.5433 15.358C11.4467 15.2131 10.8672 15.02 10.9638 14.6819C10.9638 14.5853 11.2535 14.4404 11.2535 14.4404C11.2052 14.6819 11.3501 14.9234 11.6399 14.9234C12.0263 14.9717 11.8814 14.8268 11.9297 14.7302C11.978 14.6336 12.2677 14.7785 12.1712 14.537C12.1712 14.4887 11.8331 14.4404 11.9297 14.2955C12.1229 14.0541 12.4126 14.2472 12.6541 14.4887ZM10.4325 21.5398L10.3359 21.2983L10.4325 21.0086L10.5291 21.2983L10.4325 21.5398Z" fill="#ED4C5C"/>
<path d="M7.96946 14.6334V14.8749H8.06605V15.0681H7.82457V15.551H7.96946V16.6135H7.67969V17.1448H9.65979V16.6135H9.41831V15.551H9.5149V15.0681H9.27343V14.8749H9.41831V14.6334H8.93536V14.8749H9.03195V15.0681H8.79048V14.4885H8.93536V14.2471H8.40411V14.4885H8.549V15.0681H8.30752V14.8749H8.40411V14.6334H7.96946ZM13.4268 20.5737V18.159H10.9155V20.5737L12.0745 21.105H12.2194L13.4268 20.5737ZM12.0745 18.3522V19.1732L11.2535 18.3522H12.0745ZM11.0603 18.4004L12.0262 19.3663L11.0603 20.3323V18.4004ZM11.1569 20.5254L12.0745 19.6078V20.9601L11.1569 20.5254ZM12.2194 20.9118V19.5595L13.137 20.4771L12.2194 20.9118ZM13.2336 20.3323L12.2677 19.3663L13.2336 18.4004V20.3323ZM12.2194 18.3522H13.0404L12.2194 19.1732V18.3522Z" fill="#C8B100"/>
<path d="M9.26953 17.6277C9.26953 16.9033 9.75248 16.3721 10.3803 16.3721C11.0082 16.3721 11.4911 16.9516 11.4911 17.6277C11.4911 18.3039 11.0082 18.8834 10.3803 18.8834C9.75248 18.8834 9.26953 18.3522 9.26953 17.6277Z" fill="#ED4C5C"/>
<path d="M9.60938 17.6276C9.60938 17.0963 9.94744 16.71 10.3821 16.71C10.8168 16.71 11.1548 17.1446 11.1548 17.6276C11.1548 18.1588 10.8168 18.5452 10.3821 18.5452C9.99574 18.5935 9.60938 18.1588 9.60938 17.6276Z" fill="#005BBF"/>
<path d="M10.0447 17L9.85156 17.5312L9.99645 17.5795L9.89986 17.7727H10.1896L10.093 17.5795L10.2379 17.5312L10.0447 17ZM10.7692 17L10.576 17.5312L10.7209 17.5795L10.6243 17.7727H10.9141L10.8658 17.5795L11.0106 17.5312L10.7692 17ZM10.4311 17.6278L10.1896 18.1591L10.3345 18.2074L10.2862 18.4006H10.5277L10.4794 18.2074L10.6243 18.1591L10.4311 17.6278Z" fill="#C8B100"/>
</svg>
