<svg width="36" height="36" viewBox="0 0 36 36" fill="none" xmlns="http://www.w3.org/2000/svg">
<path d="M26.379 4.44487C23.8046 2.85644 20.8469 1.92529 17.6152 1.92529V4.44487H26.379Z" fill="#ED4C5C"/>
<path d="M17.6152 6.9644H29.4463C28.5151 6.03325 27.4744 5.15688 26.379 4.44482H17.6152V6.9644Z" fill="white"/>
<path d="M17.6152 9.48393H31.4729C30.8704 8.55278 30.2131 7.73118 29.5011 6.96436H17.6152V9.48393Z" fill="#ED4C5C"/>
<path d="M17.6152 12.0035H32.7875C32.404 11.1271 31.9659 10.2507 31.4729 9.48389H17.6152V12.0035Z" fill="white"/>
<path d="M17.6152 14.523H33.6091C33.39 13.6466 33.1161 12.825 32.7875 12.0034H17.6152V14.523Z" fill="#ED4C5C"/>
<path d="M17.6152 17.0972H33.9925C33.9377 16.2208 33.7734 15.3992 33.6091 14.5776H17.6152V17.0972Z" fill="white"/>
<path d="M33.9909 17.0974H17.6136V18.3572H1.18164C1.18164 18.7954 1.18164 19.1788 1.23641 19.617H33.9909C34.0457 19.1788 34.0457 18.7954 34.0457 18.3572C34.0457 17.919 34.0457 17.4808 33.9909 17.0974Z" fill="#ED4C5C"/>
<path d="M1.61974 22.1363H33.6074C33.8265 21.3147 33.936 20.4931 33.9908 19.6167H1.23633C1.2911 20.4383 1.40065 21.3147 1.61974 22.1363Z" fill="white"/>
<path d="M2.44074 24.6558H32.7852C33.1138 23.8342 33.3877 23.0126 33.6068 22.1362H1.61914C1.83823 23.0126 2.1121 23.8342 2.44074 24.6558Z" fill="#ED4C5C"/>
<path d="M3.75792 27.1753H31.4732C31.9662 26.3537 32.4044 25.5321 32.7878 24.6558H2.44336C2.82677 25.5321 3.26496 26.3537 3.75792 27.1753Z" fill="white"/>
<path d="M5.7277 29.6949H29.4993C30.2114 28.928 30.9234 28.0517 31.4712 27.1753H3.75586C4.30359 28.1064 5.01565 28.928 5.7277 29.6949Z" fill="#ED4C5C"/>
<path d="M8.79582 32.2144H26.4328C27.5831 31.5023 28.569 30.626 29.5002 29.6948H5.72852C6.65966 30.6807 7.70036 31.5023 8.79582 32.2144Z" fill="white"/>
<path d="M17.6134 34.7887C20.8451 34.7887 23.8576 33.8576 26.4319 32.2144H8.79492C11.3693 33.8576 14.3818 34.7887 17.6134 34.7887Z" fill="#ED4C5C"/>
<path d="M8.84991 4.44487C7.69967 5.15692 6.65898 6.03329 5.72783 6.96444C4.961 7.73127 4.30372 8.60764 3.75599 9.48401C3.26303 10.3056 2.77007 11.1272 2.44143 12.0036C2.11279 12.8252 1.83892 13.6468 1.61983 14.5232C1.40073 15.3448 1.29119 16.1664 1.23641 17.0427C1.18164 17.4809 1.18164 17.9191 1.18164 18.3573H17.6136V1.92529C14.382 1.92529 11.4243 2.85644 8.84991 4.44487Z" fill="#428BC1"/>
<path d="M13.7783 2.47314L14.0522 3.29474H14.8738L14.2165 3.84248L14.4356 4.66408L13.7783 4.17112L13.121 4.66408L13.3401 3.84248L12.6828 3.29474H13.5044L13.7783 2.47314ZM15.9692 5.75955L16.2431 6.58115H17.0647L16.4074 7.12888L16.6265 7.95048L15.9692 7.45752L15.312 7.95048L15.5311 7.12888L14.8738 6.58115H15.6954L15.9692 5.75955ZM11.5874 5.75955L11.8612 6.58115H12.6828L12.0256 7.12888L12.2447 7.95048L11.5874 7.45752L10.9301 7.95048L11.1492 7.12888L10.4919 6.58115H11.3135L11.5874 5.75955ZM13.7783 9.04595L14.0522 9.86755H14.8738L14.2165 10.4153L14.4356 11.2369L13.7783 10.7439L13.121 11.2369L13.3401 10.4153L12.6828 9.86755H13.5044L13.7783 9.04595ZM9.39644 9.04595L9.67031 9.86755H10.4919L9.83463 10.4153L10.0537 11.2369L9.39644 10.7439L8.73916 11.2369L8.95826 10.4153L8.30097 9.86755H9.12258L9.39644 9.04595ZM5.01457 9.04595L5.28844 9.86755H6.11004L5.45276 10.4153L5.67185 11.2369L5.01457 10.7439L4.35729 11.2369L4.57639 10.4153L3.91911 9.86755H4.74071L5.01457 9.04595ZM15.9692 12.3323L16.2431 13.1539H17.0647L16.4074 13.7017L16.6265 14.5233L15.9692 14.0303L15.312 14.5233L15.5311 13.7017L14.8738 13.1539H15.6954L15.9692 12.3323ZM11.5874 12.3323L11.8612 13.1539H12.6828L12.0256 13.7017L12.2447 14.5233L11.5874 14.0303L10.9301 14.5233L11.1492 13.7017L10.4919 13.1539H11.3135L11.5874 12.3323ZM7.20551 12.3323L7.47937 13.1539H8.30097L7.64369 13.7017L7.86279 14.5233L7.20551 14.0303L6.54823 14.5233L6.76732 13.7017L6.11004 13.1539H6.93164L7.20551 12.3323ZM13.7783 15.6187L14.0522 16.4403H14.8738L14.2165 16.9881L14.4356 17.8097L13.7783 17.3167L13.121 17.8097L13.3401 16.9881L12.6828 16.4403H13.5044L13.7783 15.6187ZM9.39644 15.6187L9.67031 16.4403H10.4919L9.83463 16.9881L10.0537 17.8097L9.39644 17.3167L8.73916 17.8097L8.95826 16.9881L8.30097 16.4403H9.12258L9.39644 15.6187ZM5.01457 15.6187L5.28844 16.4403H6.11004L5.45276 16.9881L5.67185 17.8097L5.01457 17.3167L4.35729 17.8097L4.57639 16.9881L3.91911 16.4403H4.74071L5.01457 15.6187ZM6.54823 7.95048L7.20551 7.45752L7.86279 7.95048L7.58892 7.12888L8.2462 6.58115H7.4246L7.20551 5.75955L6.93164 6.58115H6.16481L6.82209 7.07411L6.54823 7.95048ZM2.16636 14.5233L2.82364 14.0303L3.48092 14.5233L3.20705 13.7017L3.86433 13.1539H3.09751L2.82364 12.3323L2.54977 13.1539H2.00204C2.00204 13.2087 1.94727 13.2635 1.94727 13.3183L2.38545 13.6469L2.16636 14.5233Z" fill="white"/>
</svg>
